<svg width="129" height="111" viewBox="0 0 129 111" fill="none" xmlns="http://www.w3.org/2000/svg">
<g clip-path="url(#clip0_1395_4185)">
<path d="M127.693 72.153C130.366 53.014 117.421 28.302 103.999 18.439C79.7652 0.657019 59.6362 5.18302 43.9772 12.622C28.3182 20.061 26.0772 42.693 15.2772 53.363C4.47724 64.033 -8.58276 80.522 7.82024 93.47C24.2232 106.418 44.3552 96.379 61.5032 94.764C78.6512 93.149 101.396 98.964 113.694 92.499C122.281 87.982 126.512 80.613 127.693 72.153Z" fill="#407BFF"/>
<path opacity="0.8" d="M127.693 72.153C130.366 53.014 117.421 28.302 103.999 18.439C79.7652 0.657019 59.6362 5.18302 43.9772 12.622C28.3182 20.061 26.0772 42.693 15.2772 53.363C4.47724 64.033 -8.58276 80.522 7.82024 93.47C24.2232 106.418 44.3552 96.379 61.5032 94.764C78.6512 93.149 101.396 98.964 113.694 92.499C122.281 87.982 126.512 80.613 127.693 72.153Z" fill="white"/>
<path d="M103.983 50.3142C83.4903 52.4882 56.0463 64.4952 37.3743 62.9952C28.6923 62.2952 19.2153 59.7412 11.5633 57.2062C1.88827 67.7262 -6.73073 81.9952 7.81627 93.4682C24.2163 106.403 44.3513 96.3772 61.4993 94.7622C78.6473 93.1472 101.392 98.9623 113.69 92.4973C122.281 87.9803 126.512 80.6112 127.69 72.1522C128.435 65.6787 127.856 59.1215 125.99 52.8782C119.331 50.8582 111.626 49.5042 103.983 50.3142Z" fill="#407BFF"/>
<path opacity="0.6" d="M103.983 50.3142C83.4903 52.4882 56.0463 64.4952 37.3743 62.9952C28.6923 62.2952 19.2153 59.7412 11.5633 57.2062C1.88827 67.7262 -6.73073 81.9952 7.81627 93.4682C24.2163 106.403 44.3513 96.3772 61.4993 94.7622C78.6473 93.1472 101.392 98.9623 113.69 92.4973C122.281 87.9803 126.512 80.6112 127.69 72.1522C128.435 65.6787 127.856 59.1215 125.99 52.8782C119.331 50.8582 111.626 49.5042 103.983 50.3142Z" fill="white"/>
<path opacity="0.3" d="M35.3552 62.7982L34.3122 62.6752L33.7432 62.6152L32.7542 62.4772L32.1702 62.3922L31.1403 62.2262L30.6092 62.1382C30.1822 62.0662 29.7552 61.9902 29.3272 61.9092L29.0573 61.8622C28.5393 61.7622 28.0203 61.6622 27.4863 61.5482L27.0492 61.4572L25.9282 61.2182L25.3692 61.0922L24.3643 60.8632L23.7923 60.7282L22.7812 60.4802C22.6023 60.4362 22.4263 60.3952 22.2503 60.3482C21.8643 60.2542 21.4803 60.1532 21.1003 60.0482L20.7322 59.9542L19.2243 59.5462L18.9443 59.4672L17.7442 59.1252L17.2602 58.9842L16.2712 58.6952L15.7712 58.5282L14.8292 58.2362L14.3452 58.0852L13.3182 57.7712L12.9572 57.6582L11.5812 57.2092C9.85485 59.0663 8.22664 61.0123 6.70325 63.0392C9.70826 64.582 13.0207 65.4321 16.3972 65.5272C23.4928 65.6008 30.5676 64.7496 37.4432 62.9952H37.3862C36.8862 62.9542 36.3752 62.9072 35.8662 62.8542L35.3552 62.7982Z" fill="white"/>
<path opacity="0.3" d="M125.067 52.6053L124.31 52.3913L123.996 52.3033L123.142 52.0743L123.051 52.0523C121.681 51.6973 120.274 51.3773 118.845 51.1103H118.766L117.698 50.9153C118.807 53.2433 119.583 56.8463 115.948 59.7543C110.093 64.4663 119.121 68.0883 88.1363 68.8133C57.1513 69.5383 37.3843 77.1433 27.3823 83.3033C25.1393 84.6823 7.59333 84.6353 1.28833 85.4263C2.74949 88.6241 4.99879 91.3985 7.82533 93.4893C24.2253 106.424 44.3603 96.3983 61.5083 94.7833C78.6563 93.1683 101.401 98.9833 113.699 92.5183C122.29 88.0013 126.521 80.6323 127.699 72.1733C128.444 65.7008 127.865 59.1445 125.999 52.9023L125.493 52.7513L125.067 52.6053Z" fill="white"/>
<path d="M113.69 92.4973C122.281 87.9803 126.512 80.6113 127.69 72.1523C127.74 71.8063 127.781 71.4613 127.819 71.1123C125.805 70.4523 123.713 69.7933 121.537 69.1523C103.237 63.7183 78.5943 58.6453 45.9003 70.2393C31.102 75.6272 15.8469 79.6663 0.321289 82.3073C1.07529 86.1743 3.35229 89.9433 7.81629 93.4683C24.2163 106.403 44.3513 96.3773 61.4993 94.7623C78.6473 93.1473 101.389 98.9653 113.69 92.4973Z" fill="#407BFF"/>
<path opacity="0.4" d="M113.69 92.4973C122.281 87.9803 126.512 80.6113 127.69 72.1523C127.74 71.8063 127.781 71.4613 127.819 71.1123C125.805 70.4523 123.713 69.7933 121.537 69.1523C103.237 63.7183 78.5943 58.6453 45.9003 70.2393C31.102 75.6272 15.8469 79.6663 0.321289 82.3073C1.07529 86.1743 3.35229 89.9433 7.81629 93.4683C24.2163 106.403 44.3513 96.3773 61.4993 94.7623C78.6473 93.1473 101.389 98.9653 113.69 92.4973Z" fill="white"/>
<path opacity="0.3" d="M120.179 68.7501L119.208 68.4701L119.054 68.4261L117.87 68.0931L117.763 68.0621L116.613 67.7481L116.525 67.7261C104.525 64.4911 90.0543 61.9531 72.7093 63.9261C80.8953 64.4321 93.4883 66.1261 94.9553 71.6851C97.1553 80.0191 89.8323 79.2931 70.0713 85.0851C59.0013 88.3331 47.7713 94.0781 39.7053 98.7621C47.1623 97.4331 54.5723 95.4101 61.4993 94.7571C78.6473 93.1391 101.392 98.9571 113.69 92.4921C122.281 87.9751 126.512 80.6061 127.69 72.1471C127.74 71.8011 127.781 71.4561 127.819 71.1071C126.852 70.7911 125.867 70.4771 124.863 70.1651L124.549 70.0711L123.39 69.7131L123.013 69.5971L121.54 69.1541L120.453 68.8401L120.179 68.7501Z" fill="white"/>
<path d="M116.645 101.033C116.645 101.033 107.284 97.9862 81.5992 97.7692C55.9142 97.5522 13.0362 101.686 6.72923 103.646C0.422234 105.606 1.49923 106.907 25.8902 109.087C50.2812 111.267 95.5432 110.827 110.561 108.434C125.579 106.041 122.519 104.516 116.645 101.033Z" fill="#407BFF"/>
<path opacity="0.5" d="M116.645 101.033C116.645 101.033 107.284 97.9862 81.5992 97.7692C55.9142 97.5522 13.0362 101.686 6.72923 103.646C0.422234 105.606 1.49923 106.907 25.8902 109.087C50.2812 111.267 95.5432 110.827 110.561 108.434C125.579 106.041 122.519 104.516 116.645 101.033Z" fill="white"/>
<g opacity="0.3">
<path d="M116.646 101.032C116.646 101.032 112.61 99.7191 102.57 98.7551L101.753 99.0692C101.753 99.0692 112.508 99.5061 113.595 101.682C114.682 103.858 109.678 104.295 99.6672 105.166C89.6562 106.037 92.0462 108.866 88.1292 109.953C87.9032 110.016 87.6422 110.082 87.3502 110.148C95.1088 109.992 102.853 109.418 110.55 108.43C125.57 106.039 122.52 104.516 116.646 101.032Z" fill="white"/>
<path d="M76.0803 110.425C80.6353 108.983 85.8183 107.117 86.1693 105.825C86.8223 103.425 77.0413 102.414 80.6283 100.746C82.6793 99.7882 85.6283 98.6672 87.7683 97.8842C85.827 97.8276 83.7707 97.7899 81.5993 97.7712H80.3993C78.358 97.9252 76.3488 98.3673 74.4313 99.0843C71.6043 100.607 81.6123 103.654 80.0853 105.395C78.5583 107.136 60.9243 108.879 56.3603 110.185L55.4713 110.427C62.3283 110.525 69.3583 110.525 76.0803 110.425Z" fill="white"/>
<path d="M54.6103 104.079C52.2163 105.169 45.4663 105.602 39.3723 108.433C38.5302 108.779 37.7471 109.254 37.0513 109.84C38.7283 109.925 40.4513 110 42.2063 110.069C45.3538 108.398 48.7253 107.187 52.2173 106.475C59.1813 105.168 62.2283 102.775 59.3983 101.468C57.5733 100.623 63.8983 99.0523 69.2613 97.9343C66.0073 98.0343 62.6393 98.1793 59.2313 98.3553C55.6723 99.0493 52.4553 99.8633 52.0063 100.598C50.9103 102.339 57.0043 102.995 54.6103 104.079Z" fill="white"/>
</g>
<path d="M107.187 14.1131C110.971 14.1131 114.038 11.0458 114.038 7.26213C114.038 3.47843 110.971 0.411133 107.187 0.411133C103.404 0.411133 100.336 3.47843 100.336 7.26213C100.336 11.0458 103.404 14.1131 107.187 14.1131Z" fill="#407BFF"/>
<path opacity="0.6" d="M107.187 14.1131C110.971 14.1131 114.038 11.0458 114.038 7.26213C114.038 3.47843 110.971 0.411133 107.187 0.411133C103.404 0.411133 100.336 3.47843 100.336 7.26213C100.336 11.0458 103.404 14.1131 107.187 14.1131Z" fill="white"/>
</g>
<defs>
<clipPath id="clip0_1395_4185">
<rect width="128.003" height="110.089" fill="white" transform="translate(0.0543213 0.411133)"/>
</clipPath>
</defs>
</svg>
